<svg width="48" height="48" viewBox="0 0 48 48" fill="none" xmlns="http://www.w3.org/2000/svg">
<g filter="url(#filter0_d_5530_2770)">
<circle opacity="0.1" cx="24" cy="20" r="20" fill="#5718FF"/>
<path d="M18.4088 29.7755L18.4088 29.7753C18.2427 29.7637 18.1051 29.6935 18.0102 29.5773C17.9355 29.4858 17.8911 29.3707 17.8762 29.243H17.8676V29.143C17.8676 27.8381 18.2137 26.6162 18.8133 25.5614H15.4354C15.2647 25.5614 15.1185 25.4984 15.0151 25.3838C14.9128 25.2704 14.8596 25.1146 14.8563 24.9395M18.4088 29.7755L14.9563 24.9373M18.4088 29.7755L18.4157 29.7755L31.5545 29.7784C31.8752 29.7784 32.1335 29.5188 32.1335 29.1993C32.1335 27.9325 31.7596 26.6106 31.1652 25.5615L34.5639 25.5606C34.8846 25.5606 35.143 25.301 35.143 24.9815L35.143 24.9803C35.1124 22.5787 33.7611 20.5478 31.642 19.6785C32.786 18.9512 33.5184 17.6743 33.5184 16.259C33.5184 12.796 29.468 10.9613 26.9041 13.2053C25.6926 12.7061 24.3069 12.7061 23.0954 13.2053C22.3769 12.5769 21.4538 12.2225 20.4819 12.2225C16.4524 12.2225 14.9952 17.5735 18.3568 19.6801M18.4088 29.7755L18.5834 19.6986C18.5458 19.6774 18.5088 19.6558 18.4723 19.6337C18.4336 19.6487 18.3951 19.6642 18.3568 19.6801M14.8563 24.9395C14.8563 24.9394 14.8563 24.9393 14.8563 24.9391L14.9563 24.9373M14.8563 24.9395C14.8563 24.9396 14.8564 24.9397 14.8564 24.9398L14.9563 24.9373M14.8563 24.9395C14.8008 22.6744 16.279 20.5403 18.3568 19.6801M14.9563 24.9373C14.9011 22.691 16.3857 20.5712 18.4632 19.7447C18.4272 19.7235 18.3917 19.702 18.3568 19.6801M18.9876 25.4614H18.8713L18.9286 25.5614C18.948 25.5279 18.9677 25.4946 18.9876 25.4614ZM31.5289 14.2208L31.529 14.2208C33.2108 15.9195 32.1948 18.8304 29.877 19.118C30.3723 17.1142 29.6089 15.0353 27.9941 13.8271C29.1109 13.1096 30.5822 13.2636 31.5289 14.2208ZM20.1248 19.1177C18.7124 18.9379 17.6403 17.7188 17.6403 16.2608C17.6403 13.9608 20.15 12.6264 22.008 13.827C20.393 15.0351 19.6297 17.1138 20.1248 19.1177ZM28.4988 19.5398C27.1179 22.541 22.8819 22.5437 21.5011 19.5399C20.2785 16.8771 22.2423 13.9895 24.989 13.989C27.9024 14.0253 29.6822 16.9672 28.4988 19.5398ZM16.0459 24.4043C16.3122 22.0953 18.281 20.3435 20.6465 20.4198C21.1146 21.2353 21.8013 21.9107 22.6305 22.3566C21.4649 22.7713 20.4356 23.482 19.6346 24.4042L16.0459 24.4043ZM30.3445 24.4042C29.5465 23.4875 28.5226 22.7755 27.3622 22.3621C28.1946 21.9141 28.8858 21.2383 29.356 20.4198C31.7215 20.3434 33.6905 22.0943 33.9566 24.4042H30.3445ZM19.0479 28.6202C19.1691 27.1942 19.8065 25.8488 20.7718 24.8727C24.381 21.2248 30.5119 23.5852 30.9316 28.6202H19.0479Z" fill="#5718FF" stroke="#5718FF" stroke-width="0.2"/>
<path d="M26.2471 18.7977L26.2395 18.8124C25.7073 19.8176 24.2757 19.8107 23.7509 18.7979C23.6665 18.6342 23.5368 18.5376 23.3924 18.5017C23.2506 18.4663 23.1019 18.4912 22.9774 18.5554C22.8528 18.6195 22.7462 18.7261 22.6926 18.8621C22.638 19.0006 22.6413 19.1624 22.7256 19.3264L22.7257 19.3266C23.6816 21.179 26.32 21.1791 27.275 19.3265C27.3596 19.1625 27.3631 19.0006 27.3085 18.862C27.2548 18.7258 27.1481 18.6192 27.0233 18.555C26.8985 18.4908 26.7495 18.4659 26.6073 18.5013C26.4625 18.5372 26.3322 18.6338 26.2471 18.7977ZM27.1861 19.2807C26.2683 21.061 23.7333 21.061 22.8145 19.2807L26.4019 18.7438C26.7353 18.3458 27.4544 18.7607 27.1861 19.2807Z" fill="#5718FF" stroke="#5718FF" stroke-width="0.2"/>
</g>
<defs>
<filter id="filter0_d_5530_2770" x="0" y="0" width="48" height="48" filterUnits="userSpaceOnUse" color-interpolation-filters="sRGB">
<feFlood flood-opacity="0" result="BackgroundImageFix"/>
<feColorMatrix in="SourceAlpha" type="matrix" values="0 0 0 0 0 0 0 0 0 0 0 0 0 0 0 0 0 0 127 0" result="hardAlpha"/>
<feOffset dy="4"/>
<feGaussianBlur stdDeviation="2"/>
<feComposite in2="hardAlpha" operator="out"/>
<feColorMatrix type="matrix" values="0 0 0 0 0 0 0 0 0 0 0 0 0 0 0 0 0 0 0.25 0"/>
<feBlend mode="normal" in2="BackgroundImageFix" result="effect1_dropShadow_5530_2770"/>
<feBlend mode="normal" in="SourceGraphic" in2="effect1_dropShadow_5530_2770" result="shape"/>
</filter>
</defs>
</svg>
