<svg width="26" height="26" viewBox="0 0 26 26" fill="none" xmlns="http://www.w3.org/2000/svg">
<mask id="path-1-outside-1_16734_820" maskUnits="userSpaceOnUse" x="2.1626" y="0.73333" width="22" height="25" fill="black">
<rect fill="white" x="2.1626" y="0.73333" width="22" height="25"/>
<path d="M19.5001 13.5968V11.663C19.5174 10.1711 19.0299 8.71776 18.1168 7.53762C17.2038 6.35746 15.919 5.52059 14.4708 5.16309C15.0304 4.57404 15.1848 3.70871 14.8649 2.96326C14.5439 2.21677 13.8107 1.73333 12.9982 1.73333C12.1857 1.73333 11.4524 2.21677 11.1314 2.96326C10.8115 3.70873 10.9659 4.57404 11.5255 5.16309C10.0965 5.49621 8.82202 6.30262 7.90994 7.45232C6.9969 8.601 6.50025 10.0249 6.50025 11.4925V13.5968C6.50736 16.5107 5.34954 19.3057 3.28275 21.3602C3.16595 21.476 3.1304 21.6517 3.19337 21.804C3.25736 21.9563 3.40564 22.0559 3.57118 22.0549H10.189C10.4012 23.4442 11.5956 24.47 13.0001 24.47C14.4045 24.47 15.5991 23.4442 15.8112 22.0549H22.429C22.5945 22.0559 22.7428 21.9563 22.8068 21.804C22.8698 21.6517 22.8342 21.476 22.7174 21.3602C20.6506 19.3056 19.4929 16.5107 19.4999 13.5968L19.5001 13.5968ZM13.0001 2.55485C13.4927 2.55485 13.9375 2.85141 14.1264 3.30742C14.3143 3.76242 14.2107 4.28648 13.8624 4.63587C13.513 4.98421 12.9889 5.08782 12.5339 4.89992C12.0779 4.71102 11.7813 4.26617 11.7813 3.7736C11.7813 3.10025 12.3267 2.55485 13.0001 2.55485ZM13.0001 23.6798C12.0342 23.6798 11.2024 23.0004 11.0095 22.0549H14.9906C14.7976 23.0004 13.9658 23.6798 13 23.6798H13.0001ZM4.50121 21.2424C6.32324 19.1126 7.32169 16.3999 7.31233 13.5968V11.4924C7.3103 9.93443 7.9471 8.44442 9.07443 7.3701C10.2018 6.29456 11.7202 5.72987 13.276 5.80503C14.7588 5.89644 16.1493 6.5576 17.1568 7.64838C18.1653 8.74017 18.7127 10.1773 18.6873 11.663V13.5968C18.6782 16.3999 19.6766 19.1127 21.4985 21.2424H4.50121Z"/>
</mask>
<path d="M19.5001 13.5968V11.663C19.5174 10.1711 19.0299 8.71776 18.1168 7.53762C17.2038 6.35746 15.919 5.52059 14.4708 5.16309C15.0304 4.57404 15.1848 3.70871 14.8649 2.96326C14.5439 2.21677 13.8107 1.73333 12.9982 1.73333C12.1857 1.73333 11.4524 2.21677 11.1314 2.96326C10.8115 3.70873 10.9659 4.57404 11.5255 5.16309C10.0965 5.49621 8.82202 6.30262 7.90994 7.45232C6.9969 8.601 6.50025 10.0249 6.50025 11.4925V13.5968C6.50736 16.5107 5.34954 19.3057 3.28275 21.3602C3.16595 21.476 3.1304 21.6517 3.19337 21.804C3.25736 21.9563 3.40564 22.0559 3.57118 22.0549H10.189C10.4012 23.4442 11.5956 24.47 13.0001 24.47C14.4045 24.47 15.5991 23.4442 15.8112 22.0549H22.429C22.5945 22.0559 22.7428 21.9563 22.8068 21.804C22.8698 21.6517 22.8342 21.476 22.7174 21.3602C20.6506 19.3056 19.4929 16.5107 19.4999 13.5968L19.5001 13.5968ZM13.0001 2.55485C13.4927 2.55485 13.9375 2.85141 14.1264 3.30742C14.3143 3.76242 14.2107 4.28648 13.8624 4.63587C13.513 4.98421 12.9889 5.08782 12.5339 4.89992C12.0779 4.71102 11.7813 4.26617 11.7813 3.7736C11.7813 3.10025 12.3267 2.55485 13.0001 2.55485ZM13.0001 23.6798C12.0342 23.6798 11.2024 23.0004 11.0095 22.0549H14.9906C14.7976 23.0004 13.9658 23.6798 13 23.6798H13.0001ZM4.50121 21.2424C6.32324 19.1126 7.32169 16.3999 7.31233 13.5968V11.4924C7.3103 9.93443 7.9471 8.44442 9.07443 7.3701C10.2018 6.29456 11.7202 5.72987 13.276 5.80503C14.7588 5.89644 16.1493 6.5576 17.1568 7.64838C18.1653 8.74017 18.7127 10.1773 18.6873 11.663V13.5968C18.6782 16.3999 19.6766 19.1127 21.4985 21.2424H4.50121Z" fill="#213F7D"/>
<path d="M19.5001 13.5968L19.6089 13.9817L19.9001 13.8994V13.5968H19.5001ZM19.5001 11.663L19.1001 11.6584V11.663H19.5001ZM18.1168 7.53762L17.8004 7.78238L17.8004 7.78239L18.1168 7.53762ZM14.4708 5.16309L14.1808 4.8876L13.7069 5.38651L14.375 5.55144L14.4708 5.16309ZM14.8649 2.96326L15.2325 2.8055L15.2324 2.80527L14.8649 2.96326ZM11.1314 2.96326L10.764 2.80527L10.7639 2.80551L11.1314 2.96326ZM11.5255 5.16309L11.6163 5.55265L12.2966 5.39406L11.8155 4.88759L11.5255 5.16309ZM7.90994 7.45232L8.22307 7.70121L8.22331 7.70092L7.90994 7.45232ZM6.50025 13.5968H6.10025L6.10025 13.5978L6.50025 13.5968ZM3.28275 21.3602L3.56435 21.6443L3.56475 21.6439L3.28275 21.3602ZM3.19337 21.804L2.8237 21.9568L2.82458 21.9589L3.19337 21.804ZM3.57118 22.0549V21.6549L3.56872 21.6549L3.57118 22.0549ZM10.189 22.0549L10.5844 21.9945L10.5325 21.6549H10.189V22.0549ZM15.8112 22.0549V21.6549H15.4676L15.4158 21.9945L15.8112 22.0549ZM22.429 22.0549L22.4314 21.6549H22.429V22.0549ZM22.8068 21.804L23.1756 21.9589L23.1765 21.9568L22.8068 21.804ZM22.7174 21.3602L22.4354 21.6439L22.4358 21.6443L22.7174 21.3602ZM19.4999 13.5968L19.3911 13.2119L19.1006 13.294L19.0999 13.5959L19.4999 13.5968ZM14.1264 3.30742L14.4961 3.15475L14.496 3.15435L14.1264 3.30742ZM13.8624 4.63587L14.1448 4.91913L14.1456 4.91829L13.8624 4.63587ZM12.5339 4.89992L12.3808 5.26947L12.3812 5.26964L12.5339 4.89992ZM11.0095 22.0549V21.6549H10.5196L10.6176 22.1348L11.0095 22.0549ZM14.9906 22.0549L15.3825 22.1348L15.4805 21.6549H14.9906V22.0549ZM4.50121 21.2424L4.19726 20.9823L3.6326 21.6424H4.50121V21.2424ZM7.31233 13.5968H6.91233L6.91233 13.5981L7.31233 13.5968ZM7.31233 11.4924H7.71233L7.71233 11.4919L7.31233 11.4924ZM9.07443 7.3701L9.35038 7.65967L9.35055 7.65952L9.07443 7.3701ZM13.276 5.80503L13.3006 5.40576L13.2953 5.4055L13.276 5.80503ZM17.1568 7.64838L16.863 7.91979L16.863 7.9198L17.1568 7.64838ZM18.6873 11.663L18.2873 11.6562V11.663H18.6873ZM18.6873 13.5968L19.0873 13.5981V13.5968H18.6873ZM21.4985 21.2424V21.6424H22.367L21.8024 20.9823L21.4985 21.2424ZM19.9001 13.5968V11.663H19.1001V13.5968H19.9001ZM19.9001 11.6677C19.9184 10.0855 19.4014 8.54428 18.4332 7.29286L17.8004 7.78239C18.6583 8.89124 19.1163 10.2567 19.1001 11.6584L19.9001 11.6677ZM18.4332 7.29286C17.465 6.04139 16.1025 5.15389 14.5667 4.77475L14.375 5.55144C15.7355 5.8873 16.9426 6.67353 17.8004 7.78238L18.4332 7.29286ZM14.7608 5.43859C15.4306 4.73355 15.6154 3.69782 15.2325 2.8055L14.4973 3.12102C14.7542 3.71959 14.6302 4.41453 14.1808 4.8876L14.7608 5.43859ZM15.2324 2.80527C14.8484 1.91211 13.9707 1.33333 12.9982 1.33333V2.13333C13.6506 2.13333 14.2395 2.52144 14.4974 3.12125L15.2324 2.80527ZM12.9982 1.33333C12.0256 1.33333 11.148 1.91211 10.764 2.80527L11.4989 3.12125C11.7568 2.52144 12.3457 2.13333 12.9982 2.13333V1.33333ZM10.7639 2.80551C10.3809 3.69784 10.5657 4.73355 11.2355 5.43859L11.8155 4.88759C11.3661 4.41453 11.2421 3.71962 11.499 3.12101L10.7639 2.80551ZM11.4347 4.77354C9.91785 5.12713 8.56487 5.98316 7.59658 7.20371L8.22331 7.70092C9.07917 6.62208 10.2752 5.86528 11.6163 5.55265L11.4347 4.77354ZM7.59681 7.20342C6.62748 8.42292 6.10025 9.93455 6.10025 11.4925H6.90025C6.90025 10.1152 7.36632 8.77907 8.22307 7.70121L7.59681 7.20342ZM6.10025 11.4925V13.5968H6.90025V11.4925H6.10025ZM6.10025 13.5978C6.1071 16.4049 4.99172 19.0973 3.00075 21.0765L3.56475 21.6439C5.70736 19.514 6.90762 16.6165 6.90025 13.5959L6.10025 13.5978ZM3.00114 21.0761C2.76911 21.3061 2.69872 21.6544 2.82371 21.9568L3.56304 21.6512C3.56209 21.6489 3.56279 21.6458 3.56435 21.6443L3.00114 21.0761ZM2.82458 21.9589C2.95027 22.2582 3.24355 22.4569 3.57364 22.4549L3.56872 21.6549C3.56773 21.6549 3.56444 21.6545 3.56217 21.6491L2.82458 21.9589ZM3.57118 22.4549H10.189V21.6549H3.57118V22.4549ZM9.79355 22.1153C10.0356 23.6999 11.3979 24.87 13.0001 24.87V24.07C11.7933 24.07 10.7668 23.1886 10.5844 21.9945L9.79355 22.1153ZM13.0001 24.87C14.6022 24.87 15.9647 23.6999 16.2066 22.1152L15.4158 21.9945C15.2335 23.1886 14.2069 24.07 13.0001 24.07V24.87ZM15.8112 22.4549H22.429V21.6549H15.8112V22.4549ZM22.4265 22.4549C22.7566 22.4569 23.0499 22.2582 23.1756 21.9589L22.438 21.6491C22.4357 21.6545 22.4324 21.6549 22.4314 21.6549L22.4265 22.4549ZM23.1765 21.9568C23.3014 21.6544 23.2311 21.3061 22.999 21.0761L22.4358 21.6443C22.4374 21.6458 22.4381 21.6489 22.4371 21.6512L23.1765 21.9568ZM22.9994 21.0765C21.0084 19.0973 19.8931 16.4049 19.8999 13.5978L19.0999 13.5959C19.0926 16.6165 20.2928 19.5139 22.4354 21.6439L22.9994 21.0765ZM19.6087 13.9818L19.6089 13.9817L19.3913 13.2119L19.3911 13.2119L19.6087 13.9818ZM13.0001 2.95485C13.3311 2.95485 13.63 3.15413 13.7569 3.4605L14.496 3.15435C14.2451 2.54868 13.6543 2.15485 13.0001 2.15485V2.95485ZM13.7567 3.4601C13.883 3.76604 13.8134 4.11846 13.5791 4.35344L14.1456 4.91829C14.608 4.45449 14.7456 3.7588 14.4961 3.15475L13.7567 3.4601ZM13.5799 4.3526C13.3449 4.58689 12.9925 4.65655 12.6866 4.53021L12.3812 5.26964C12.9853 5.5191 13.681 5.38154 14.1448 4.91913L13.5799 4.3526ZM12.687 4.53038C12.3806 4.40346 12.1813 4.10458 12.1813 3.7736H11.3813C11.3813 4.42777 11.7752 5.01858 12.3808 5.26947L12.687 4.53038ZM12.1813 3.7736C12.1813 3.32117 12.5477 2.95485 13.0001 2.95485V2.15485C12.1058 2.15485 11.3813 2.87934 11.3813 3.7736H12.1813ZM13.0001 23.2799C12.2243 23.2799 11.5563 22.7341 11.4014 21.9749L10.6176 22.1348C10.8485 23.2666 11.8442 24.0799 13.0001 24.0799V23.2799ZM11.0095 22.4549H14.9906V21.6549H11.0095V22.4549ZM14.5987 21.9749C14.4437 22.7341 13.7758 23.2799 13 23.2799V24.0799C14.1559 24.0799 15.1515 23.2666 15.3825 22.1348L14.5987 21.9749ZM13 24.0799H13.0001V23.2799H13V24.0799ZM4.80516 21.5024C6.68938 19.2999 7.72201 16.4945 7.71233 13.5955L6.91233 13.5981C6.92137 16.3052 5.9571 18.9253 4.19726 20.9823L4.80516 21.5024ZM7.71233 13.5968V11.4924H6.91233V13.5968H7.71233ZM7.71233 11.4919C7.71044 10.0434 8.30246 8.65831 9.35038 7.65967L8.79848 7.08053C7.59173 8.23053 6.91016 9.82543 6.91233 11.4929L7.71233 11.4919ZM9.35055 7.65952C10.3985 6.65973 11.8101 6.13468 13.2567 6.20457L13.2953 5.4055C11.6303 5.32506 10.005 5.9294 8.79831 7.08069L9.35055 7.65952ZM13.2514 6.20428C14.6312 6.28933 15.9253 6.90461 16.863 7.91979L17.4506 7.37698C16.3733 6.2106 14.8864 5.50355 13.3006 5.40579L13.2514 6.20428ZM16.863 7.9198C17.8015 8.93588 18.311 10.2733 18.2874 11.6562L19.0873 11.6699C19.1144 10.0813 18.5291 8.54447 17.4506 7.37697L16.863 7.9198ZM18.2873 11.663V13.5968H19.0873V11.663H18.2873ZM18.2873 13.5955C18.2779 16.4945 19.3104 19.3 21.1945 21.5024L21.8024 20.9823C20.0427 18.9254 19.0785 16.3052 19.0873 13.5981L18.2873 13.5955ZM21.4985 20.8424H4.50121V21.6424H21.4985V20.8424Z" fill="#213F7D" mask="url(#path-1-outside-1_16734_820)"/>
</svg>
